<svg id="dental" viewBox="0 0 1062 1440" xmlns="http://www.w3.org/2000/svg" xmlns:xlink="http://www.w3.org/1999/xlink" version="1.1">
  <polygon id="101" points="529, 70, 538, 22, 525, 12, 506, 12, 501, 22, 488, 27, 493, 40, 515, 74" fill="white" stroke-width="4" stroke="black" />
  <polygon id="102" points="480, 82, 488, 63, 483, 35, 463, 27, 437, 32, 435, 50, 429, 62" fill="white" stroke-width="4" stroke="black" />
  <polygon id="103" points="384, 125, 411, 129, 430, 83, 404, 63, 374, 72, 366, 86" fill="white" stroke-width="4" stroke="black" />
  <polygon id="104" points="301, 138, 392, 150, 413, 179, 412, 218, 397, 233, 365, 237, 342, 209" fill="white" stroke-width="4" stroke="black" />
  <circle id="105" cx="372" cy="289" r="21" stroke="black" stroke-width="4" fill="white" />
  <polygon id="106" points="329, 392, 333, 372, 332, 352, 354, 333, 367, 336, 371, 350, 342, 394" fill="white" stroke-width="4" stroke="black" />
  <polygon id="107" points="274, 481, 287, 442, 316, 413, 341, 416, 337, 439, 325, 459, 296, 484" fill="white" stroke-width="4" stroke="black" />
  <polygon id="108" points="341, 525, 325, 537, 304, 542, 292, 559, 289, 578, 279, 600, 246, 613, 225, 596, 217, 558, 233, 514, 258, 499, 302, 506, 33" fill="white" stroke-width="4" stroke="black" />
  <polygon id="109" points="245, 617, 290, 602, 349, 620, 380, 633, 384, 649, 365, 656, 322, 661, 305, 673, 278, 683, 263, 671, 248, 638" fill="white" stroke-width="4" stroke="black" />
  <polygon id="110" points="278, 688, 309, 675, 341, 680, 361, 700, 292, 706, 276, 698" fill="white" stroke-width="4" stroke="black" />
  <polygon id="201" points="560, 66, 586, 69, 609, 28, 600, 19, 585, 8, 564, 15, 551, 28" fill="white" stroke-width="4" stroke="black" />
  <polygon id="202" points="611, 82, 621, 91, 635, 89, 650, 60, 669, 50, 666, 34, 650, 23, 623, 24, 612, 30" fill="white" stroke-width="4" stroke="black" />
  <polygon id="203" points="658, 108, 661, 83, 684, 63, 710, 58, 731, 65, 744, 79, 718, 95, 709, 111, 702, 128" fill="white" stroke-width="4" stroke="black" />
  <polygon id="204" points="735, 236, 745, 205, 799, 144, 794, 133, 779, 129, 710, 155, 690, 167, 681, 195, 682, 215, 699, 236, 717, 242" fill="white" stroke-width="4" stroke="black" />
  <circle id="205" cx="705" cy="287" r="21" stroke="black" stroke-width="4" fill="white" />
  <polygon id="206" points="696, 338, 728, 334, 741, 357, 746, 391, 734, 405, 710, 405, 700, 395" fill="white" stroke-width="4" stroke="black" />
  <polygon id="207" points="702, 439, 719, 420, 741, 427, 764, 443, 776, 465, 779, 492, 769, 505, 736, 498, 712, 482" fill="white" stroke-width="4" stroke="black" />
  <polygon id="208" points="717, 520, 708, 531, 763, 569, 758, 585, 791, 610, 828, 614, 843, 595, 849, 559, 819, 511, 795, 504" fill="white" stroke-width="4" stroke="black" />
  <polygon id="209" points="696, 656, 707, 626, 757, 611, 827, 616, 835, 644, 822, 651, 815, 679" fill="white" stroke-width="4" stroke="black" />
  <polygon id="210" points="797, 701, 798, 711, 773, 720, 765, 711, 735, 706, 736, 696, 760, 678, 785, 676, 812, 684" fill="white" stroke-width="4" stroke="black" />
  <polygon id="301" points="529, 1414, 532, 1385, 526, 1359, 542, 1359, 548, 1383, 561, 1401, 557, 1417" fill="white" stroke-width="4" stroke="black" />
  <polygon id="302" points="560, 1385, 556, 1355, 569, 1355, 581, 1380, 604, 1400, 603, 1409, 572, 1415" fill="white" stroke-width="4" stroke="black" />
  <polygon id="303" points="589, 1357, 606, 1351, 625, 1374, 659, 1380, 664, 1407, 639, 1412, 611, 1398" fill="white" stroke-width="4" stroke="black" />
  <polygon id="304" points="654, 1280, 670, 1297, 685, 1317, 724, 1327, 746, 1327, 732, 1356, 710, 1368, 655, 1365, 615, 1349, 597, 1323, 602, 1297, 622, 1280" fill="white" stroke-width="4" stroke="black" />
  <circle id="305" cx="641" cy="1240" r="21" stroke="black" stroke-width="4" fill="white" />
  <polygon id="306" points="634, 1204, 644, 1186, 638, 1165, 666, 1163, 676, 1202, 657, 1219" fill="white" stroke-width="4" stroke="black" />
  <polygon id="307" points="655, 1078, 702, 1080, 683, 1139, 649, 1124" fill="white" stroke-width="4" stroke="black" />
  <polygon id="308" points="693, 1011, 712, 995, 730, 997, 744, 1024, 714, 1057, 689, 1046" fill="white" stroke-width="4" stroke="black" />
  <polygon id="309" points="702, 861, 722, 849, 762, 849, 784, 923, 779, 950, 728, 993, 700, 989, 689, 941" fill="white" stroke-width="4" stroke="black" />
  <polygon id="310" points="710, 830, 718, 806, 717, 788, 746, 784, 762, 795, 758, 828, 742, 838" fill="white" stroke-width="4" stroke="black" />
  <circle id="311" cx="745" cy="760" r="21" stroke="black" stroke-width="4" fill="white" />
  <polygon id="401" points="489, 1413, 516, 1416, 520, 1395, 512, 1383, 517, 1364, 502, 1364" fill="white" stroke-width="4" stroke="black" />
  <polygon id="402" points="443, 1397, 466, 1377, 472, 1355, 484, 1355, 494, 1378, 485, 1410, 462, 1412" fill="white" stroke-width="4" stroke="black" />
  <polygon id="403" points="386, 1370, 458, 1353, 422, 1399, 390, 1386" fill="white" stroke-width="4" stroke="black" />
  <polygon id="404" points="265, 1333, 296, 1333, 351, 1289, 379, 1273, 402, 1271, 418, 1293, 419, 1315, 405, 1340, 355, 1368, 305, 1367, 277, 1355" fill="white" stroke-width="4" stroke="black" />
  <circle id="405" cx="383" cy="1232" r="21" stroke="black" stroke-width="4" fill="white" />
  <polygon id="406" points="360, 1150, 388, 1152, 392, 1193, 371, 1202, 351, 1186" fill="white" stroke-width="4" stroke="black" />
  <polygon id="407" points="338, 1065, 357, 1054, 376, 1056, 385, 1113, 353, 1130, 331, 1090" fill="white" stroke-width="4" stroke="black" />
  <polygon id="408" points="293, 1026, 297, 979, 327, 976, 342, 988, 341, 1044, 312, 1046" fill="white" stroke-width="4" stroke="black" />
  <polygon id="409" points="263, 942, 278, 873, 265, 849, 299, 832, 325, 835, 342, 854, 345, 908, 349, 943, 339, 968, 302, 975, 268, 959" fill="white" stroke-width="4" stroke="black" />
  <polygon id="410" points="290, 775, 325, 772, 333, 818, 321, 831, 298, 829, 284, 815, 284, 794, 279, 782" fill="white" stroke-width="4" stroke="black" />
  <circle id="411" cx="312" cy="750" r="21" stroke="black" stroke-width="4" fill="white" />
  Sorry, your browser does not support inline SVG.
</svg>